<svg xmlns="http://www.w3.org/2000/svg" width="500" height="500" viewBox="0 0 500 500" version="1.1">
	<path d="M 235.500 16.672 C 212.055 18.643, 187.158 24.053, 168 31.339 C 95.619 58.869, 41.375 119.290, 22.546 193.357 C 17.143 214.610, 15.586 227.617, 15.586 251.500 C 15.586 266.674, 16.088 275.829, 17.396 284.500 C 33.376 390.487, 115.126 470.644, 222 485.118 C 234.164 486.765, 266.834 486.787, 278.500 485.156 C 335.505 477.184, 381.755 454.017, 420.132 414.212 C 445.347 388.059, 462.579 359.658, 473.886 325.619 C 487.499 284.637, 489.582 241.999, 480.060 199.265 C 461.287 115.017, 393.567 45.089, 310.399 24.072 C 284.551 17.540, 257.261 14.844, 235.500 16.672 M 64.750 253.080 C 62.554 254.359, 62.448 259.305, 64.571 261.429 C 65.989 262.846, 84.252 262.998, 250.821 262.985 C 352.395 262.976, 435.995 262.639, 436.600 262.235 C 437.205 261.831, 438.250 260.457, 438.921 259.183 C 439.923 257.281, 439.856 256.430, 438.548 254.433 L 436.954 252 251.727 252.030 C 127.772 252.051, 65.921 252.398, 64.750 253.080 M 248 304.500 L 248 312.133 250.750 311.816 C 253.458 311.505, 253.500 311.393, 253.500 304.500 C 253.500 297.607, 253.458 297.495, 250.750 297.184 L 248 296.867 248 304.500 M 209.667 313.667 C 208.085 315.249, 209.297 317.875, 213.523 322.022 C 217.178 325.610, 218.365 326.259, 219.713 325.409 C 222.664 323.548, 222.282 322.019, 217.727 317.464 C 213.507 313.244, 211.184 312.150, 209.667 313.667 M 284.356 317.381 C 279.721 322.016, 279.328 323.543, 282.287 325.409 C 283.635 326.260, 284.827 325.604, 288.515 321.986 C 291.449 319.105, 292.972 316.799, 292.787 315.515 C 292.270 311.922, 289.117 312.620, 284.356 317.381 M 242.024 319.603 C 226.542 323.764, 216.159 336.393, 215.210 352.218 C 214.631 361.862, 216.079 367.790, 220.895 375.500 C 225.659 383.127, 228 389.086, 228 393.586 C 228 401.151, 227.526 401, 251.335 401 C 266.541 401, 272.942 400.658, 273.800 399.800 C 274.460 399.140, 275 396.722, 275 394.426 C 275 388.952, 277.265 382.720, 281.510 376.520 C 286.372 369.415, 288.125 363.713, 288.125 355 C 288.125 343.699, 284.399 335.207, 276.187 327.788 C 271.045 323.143, 265.984 320.561, 259.201 319.123 C 252.407 317.683, 248.793 317.784, 242.024 319.603 M 244.734 325.034 C 238.396 326.618, 233.486 329.666, 228.708 334.980 C 222.884 341.457, 220.656 347.911, 221.162 356.834 C 221.548 363.644, 222.239 365.443, 229.350 378.146 C 231.646 382.250, 233.301 386.745, 233.674 389.896 C 234.267 394.902, 234.343 395, 237.639 395 C 239.488 395, 241 394.527, 241 393.949 C 241 393.371, 239.425 386.644, 237.500 379 C 233.367 362.589, 233.168 360, 236.035 360 C 237.155 360, 239.194 360.736, 240.566 361.635 C 243.460 363.532, 243.604 363.432, 246.968 357.202 C 250.339 350.962, 252.661 350.962, 256.032 357.202 C 259.396 363.432, 259.540 363.532, 262.434 361.635 C 265.514 359.617, 268.605 359.527, 269.337 361.435 C 269.639 362.224, 268.121 369.536, 265.963 377.685 C 263.805 385.833, 262.031 393.063, 262.020 393.750 C 262.008 394.516, 263.356 395, 265.500 395 C 268.713 395, 269 394.757, 269 392.035 C 269 387.525, 271.693 380.543, 276.005 373.870 C 281.336 365.623, 282.322 362.082, 281.787 353.119 C 281.249 344.124, 279.108 339.385, 272.833 333.298 C 265.440 326.127, 253.917 322.738, 244.734 325.034 M 194.179 345.705 C 194.476 348.294, 194.864 348.523, 199.434 348.812 C 206.608 349.266, 209.198 348.411, 208.815 345.715 C 208.527 343.691, 207.869 343.475, 201.179 343.205 L 193.858 342.910 194.179 345.705 M 293.374 344.469 C 292.252 347.392, 294.924 349.001, 300.872 348.985 C 307.322 348.967, 309.348 348.050, 308.838 345.380 C 308.532 343.780, 307.399 343.456, 301.225 343.206 C 295.396 342.970, 293.854 343.218, 293.374 344.469 M 250.545 363.858 C 249.325 367.701, 245.904 371.104, 243.900 370.468 C 241.514 369.711, 241.522 370.258, 244.046 380.333 C 247.808 395.352, 247.701 395.151, 251.788 394.805 L 255.386 394.500 258.167 383.500 C 261.513 370.269, 261.528 370.049, 259.045 370.699 C 257.549 371.090, 256.394 370.113, 254.131 366.545 C 251.596 362.549, 251.083 362.164, 250.545 363.858 M 229.011 408.487 C 228.332 409.305, 228.037 410.655, 228.357 411.487 C 228.851 412.776, 232.282 413, 251.500 413 C 270.718 413, 274.149 412.776, 274.643 411.487 C 274.963 410.655, 274.668 409.305, 273.989 408.487 C 272.968 407.256, 269.093 407, 251.500 407 C 233.907 407, 230.032 407.256, 229.011 408.487 M 235.250 418.662 C 234.472 418.976, 234 421.156, 234 424.435 C 234 439.132, 251.572 446.962, 262.990 437.355 C 266.724 434.213, 268.540 430.846, 269.447 425.386 C 270.598 418.454, 269.461 417.986, 251.679 418.079 C 243.330 418.122, 235.938 418.385, 235.250 418.662 M 240 425.865 C 240 429.737, 247.137 436, 251.549 436 C 254.699 436, 260.097 432.714, 261.544 429.915 C 264.489 424.219, 264.117 424, 251.500 424 C 240.944 424, 240 424.153, 240 425.865" stroke="none" fill="black" fill-rule="evenodd"/>
</svg>